<svg width="31" height="36" viewBox="0 0 31 36" fill="none" xmlns="http://www.w3.org/2000/svg">
<path d="M14.9822 23.0199L6.25836 34.2193C5.96175 34.6855 5.55384 35.0706 5.07138 35.34C4.58892 35.6093 4.04704 35.7544 3.49454 35.7623C2.73663 35.7726 2.00531 35.4831 1.45982 34.9569C1.18248 34.7025 0.963204 34.3914 0.816907 34.0446C0.670609 33.6979 0.600723 33.3237 0.612021 32.9476C0.639374 32.1052 0.936568 31.2938 1.45982 30.6331L11.4045 18.3315L2.07872 6.02152C1.64537 5.44382 1.40775 4.74286 1.40048 4.02072C1.39828 3.59003 1.48527 3.16356 1.65599 2.76814C1.8267 2.37273 2.07743 2.01694 2.3924 1.72319C2.6882 1.41434 3.04357 1.1687 3.43701 1.00112C3.83046 0.83354 4.25381 0.747508 4.68145 0.748219C5.22912 0.757102 5.76584 0.902951 6.24268 1.17247C6.71952 1.44198 7.12129 1.82659 7.41136 2.29121L15.8385 13.3889L24.3165 2.47773C24.6195 1.96869 25.0434 1.54223 25.5507 1.23612C26.0579 0.930013 26.6328 0.753698 27.2244 0.722787C27.5916 0.721875 27.955 0.796691 28.292 0.942563C28.6289 1.08843 28.9322 1.30223 29.1828 1.57058C29.45 1.82214 29.663 2.12558 29.8087 2.46233C29.9545 2.79908 30.03 3.16205 30.0306 3.529C30.0216 4.18565 29.795 4.82075 29.3863 5.3348L19.4077 18.1026L29.0472 30.8196C29.5028 31.388 29.7564 32.092 29.7678 32.8204C29.7705 33.2416 29.6818 33.6584 29.5076 34.0419C29.3334 34.4255 29.0779 34.7666 28.7589 35.0417C28.1368 35.6398 27.3074 35.974 26.4444 35.9742C25.894 35.9674 25.3541 35.8226 24.8742 35.553C24.3943 35.2834 23.9897 34.8977 23.6976 34.4312L14.9822 23.0199Z" fill="white"/>
</svg>
